<svg width="1063" height="216" viewBox="0 0 1063 216" fill="none" xmlns="http://www.w3.org/2000/svg">
<path d="M58.9142 24.6934C33.9142 24.6934 17.2476 49.6934 17.2476 74.6934C17.2476 92.2767 25.5809 116.36 33.9142 124.693C42.2476 133.027 50.5809 191.36 67.2476 191.36C105.081 191.36 83.9142 133.027 100.581 133.027C117.248 133.027 96.0809 191.36 133.914 191.36C150.581 191.36 158.914 133.027 167.248 124.693C175.581 116.36 183.914 92.2767 183.914 74.6934C183.914 49.6934 167.248 24.6934 142.248 24.6934C117.248 24.6934 117.248 33.0267 100.581 33.0267C83.9142 33.0267 83.9142 24.6934 58.9142 24.6934ZM58.9142 41.36C75.5809 41.36 83.9142 49.6934 100.581 49.6934C117.248 49.6934 125.581 41.36 142.248 41.36C156.164 41.36 167.248 58.0267 167.248 74.6934C167.248 89.2767 160.081 108.943 152.164 116.86C144.998 124.027 134.414 174.193 129.748 174.193C127.998 174.193 125.581 165.36 125.581 154.61C125.581 137.61 120.831 116.36 100.581 116.36C80.3309 116.36 75.5809 137.61 75.5809 154.61C75.5809 165.36 73.1642 174.193 71.4142 174.193C66.7476 174.193 56.1642 124.027 48.9976 116.86C41.0809 108.943 33.9142 89.2767 33.9142 74.6934C33.9142 58.0267 44.9976 41.36 58.9142 41.36Z" fill="#4D93E9"/>
<path d="M268.8 56.912C279.456 56.912 288.768 59.024 296.736 63.248C304.704 67.472 310.848 73.424 315.168 81.104C319.584 88.688 321.792 97.472 321.792 107.456C321.792 117.344 319.584 126.128 315.168 133.808C310.848 141.488 304.656 147.44 296.592 151.664C288.624 155.888 279.36 158 268.8 158H230.928V56.912H268.8ZM267.216 136.688C276.528 136.688 283.776 134.144 288.96 129.056C294.144 123.968 296.736 116.768 296.736 107.456C296.736 98.144 294.144 90.896 288.96 85.712C283.776 80.528 276.528 77.936 267.216 77.936H255.552V136.688H267.216ZM411.297 116.528C411.297 118.832 411.153 121.232 410.865 123.728H355.137C355.521 128.72 357.105 132.56 359.889 135.248C362.769 137.84 366.273 139.136 370.401 139.136C376.545 139.136 380.817 136.544 383.217 131.36H409.425C408.081 136.64 405.633 141.392 402.081 145.616C398.625 149.84 394.257 153.152 388.977 155.552C383.697 157.952 377.793 159.152 371.265 159.152C363.393 159.152 356.385 157.472 350.241 154.112C344.097 150.752 339.297 145.952 335.841 139.712C332.385 133.472 330.657 126.176 330.657 117.824C330.657 109.472 332.337 102.176 335.697 95.936C339.153 89.696 343.953 84.896 350.097 81.536C356.241 78.176 363.297 76.496 371.265 76.496C379.041 76.496 385.953 78.128 392.001 81.392C398.049 84.656 402.753 89.312 406.113 95.36C409.569 101.408 411.297 108.464 411.297 116.528ZM386.097 110.048C386.097 105.824 384.657 102.464 381.777 99.968C378.897 97.472 375.297 96.224 370.977 96.224C366.849 96.224 363.345 97.424 360.465 99.824C357.681 102.224 355.953 105.632 355.281 110.048H386.097ZM473.247 76.784C482.655 76.784 490.143 79.856 495.711 86C501.375 92.048 504.207 100.4 504.207 111.056V158H479.727V114.368C479.727 108.992 478.335 104.816 475.551 101.84C472.767 98.864 469.023 97.376 464.319 97.376C459.615 97.376 455.871 98.864 453.087 101.84C450.303 104.816 448.911 108.992 448.911 114.368V158H424.287V77.648H448.911V88.304C451.407 84.752 454.767 81.968 458.991 79.952C463.215 77.84 467.967 76.784 473.247 76.784ZM566.103 137.12V158H553.575C544.647 158 537.687 155.84 532.695 151.52C527.703 147.104 525.207 139.952 525.207 130.064V98.096H515.415V77.648H525.207V58.064H549.831V77.648H565.959V98.096H549.831V130.352C549.831 132.752 550.407 134.48 551.559 135.536C552.711 136.592 554.631 137.12 557.319 137.12H566.103ZM574.923 117.68C574.923 109.424 576.459 102.176 579.531 95.936C582.699 89.696 586.971 84.896 592.347 81.536C597.723 78.176 603.723 76.496 610.347 76.496C616.011 76.496 620.955 77.648 625.179 79.952C629.499 82.256 632.811 85.28 635.115 89.024V77.648H659.739V158H635.115V146.624C632.715 150.368 629.355 153.392 625.035 155.696C620.811 158 615.867 159.152 610.203 159.152C603.675 159.152 597.723 157.472 592.347 154.112C586.971 150.656 582.699 145.808 579.531 139.568C576.459 133.232 574.923 125.936 574.923 117.68ZM635.115 117.824C635.115 111.68 633.387 106.832 629.931 103.28C626.571 99.728 622.443 97.952 617.547 97.952C612.651 97.952 608.475 99.728 605.019 103.28C601.659 106.736 599.979 111.536 599.979 117.68C599.979 123.824 601.659 128.72 605.019 132.368C608.475 135.92 612.651 137.696 617.547 137.696C622.443 137.696 626.571 135.92 629.931 132.368C633.387 128.816 635.115 123.968 635.115 117.824ZM702.177 51.44V158H677.553V51.44H702.177Z" fill="#4D93E9"/>
<path d="M717.286 107.744C717.286 97.952 719.494 89.168 723.91 81.392C728.326 73.52 734.326 67.376 741.91 62.96C749.59 58.544 758.086 56.336 767.398 56.336C778.342 56.336 787.894 58.976 796.054 64.256C804.214 69.536 810.166 77.024 813.91 86.72H798.214C795.43 80.672 791.398 76.016 786.118 72.752C780.934 69.488 774.694 67.856 767.398 67.856C760.39 67.856 754.102 69.488 748.534 72.752C742.966 76.016 738.598 80.672 735.43 86.72C732.262 92.672 730.678 99.68 730.678 107.744C730.678 115.712 732.262 122.72 735.43 128.768C738.598 134.72 742.966 139.328 748.534 142.592C754.102 145.856 760.39 147.488 767.398 147.488C774.694 147.488 780.934 145.904 786.118 142.736C791.398 139.472 795.43 134.816 798.214 128.768H813.91C810.166 138.368 804.214 145.808 796.054 151.088C787.894 156.272 778.342 158.864 767.398 158.864C758.086 158.864 749.59 156.704 741.91 152.384C734.326 147.968 728.326 141.872 723.91 134.096C719.494 126.32 717.286 117.536 717.286 107.744ZM828.52 118.256C828.52 110.192 830.152 103.136 833.416 97.088C836.68 90.944 841.144 86.192 846.808 82.832C852.568 79.472 858.952 77.792 865.96 77.792C872.872 77.792 878.872 79.28 883.96 82.256C889.048 85.232 892.84 88.976 895.336 93.488V79.088H908.584V158H895.336V143.312C892.744 147.92 888.856 151.76 883.672 154.832C878.584 157.808 872.632 159.296 865.816 159.296C858.808 159.296 852.472 157.568 846.808 154.112C841.144 150.656 836.68 145.808 833.416 139.568C830.152 133.328 828.52 126.224 828.52 118.256ZM895.336 118.4C895.336 112.448 894.136 107.264 891.736 102.848C889.336 98.432 886.072 95.072 881.944 92.768C877.912 90.368 873.448 89.168 868.552 89.168C863.656 89.168 859.192 90.32 855.16 92.624C851.128 94.928 847.912 98.288 845.512 102.704C843.112 107.12 841.912 112.304 841.912 118.256C841.912 124.304 843.112 129.584 845.512 134.096C847.912 138.512 851.128 141.92 855.16 144.32C859.192 146.624 863.656 147.776 868.552 147.776C873.448 147.776 877.912 146.624 881.944 144.32C886.072 141.92 889.336 138.512 891.736 134.096C894.136 129.584 895.336 124.352 895.336 118.4ZM943.833 91.904C946.137 87.392 949.401 83.888 953.625 81.392C957.945 78.896 963.177 77.648 969.321 77.648V91.184H965.865C951.177 91.184 943.833 99.152 943.833 115.088V158H930.729V79.088H943.833V91.904ZM1056.45 115.52C1056.45 118.016 1056.3 120.656 1056.02 123.44H992.943C993.423 131.216 996.063 137.312 1000.86 141.728C1005.76 146.048 1011.66 148.208 1018.58 148.208C1024.24 148.208 1028.94 146.912 1032.69 144.32C1036.53 141.632 1039.22 138.08 1040.75 133.664H1054.86C1052.75 141.248 1048.53 147.44 1042.19 152.24C1035.86 156.944 1027.98 159.296 1018.58 159.296C1011.09 159.296 1004.37 157.616 998.415 154.256C992.559 150.896 987.951 146.144 984.591 140C981.231 133.76 979.551 126.56 979.551 118.4C979.551 110.24 981.183 103.088 984.447 96.944C987.711 90.8 992.271 86.096 998.127 82.832C1004.08 79.472 1010.9 77.792 1018.58 77.792C1026.06 77.792 1032.69 79.424 1038.45 82.688C1044.21 85.952 1048.62 90.464 1051.7 96.224C1054.86 101.888 1056.45 108.32 1056.45 115.52ZM1042.91 112.784C1042.91 107.792 1041.81 103.52 1039.6 99.968C1037.39 96.32 1034.37 93.584 1030.53 91.76C1026.78 89.84 1022.61 88.88 1018 88.88C1011.38 88.88 1005.71 90.992 1001.01 95.216C996.399 99.44 993.759 105.296 993.087 112.784H1042.91Z" fill="#303030"/>
</svg>
